<?xml version="1.0" encoding="UTF-8" standalone="no"?>
<!-- Created with Inkscape (http://www.inkscape.org/) -->

<svg
   width="512"
   height="512"
   viewBox="0 0 512 512"
   version="1.1"
   id="svg1"
   xmlns="http://www.w3.org/2000/svg"
   xmlns:svg="http://www.w3.org/2000/svg">
  <defs
     id="defs1" />
  <g
     id="layer1">
    <path
       d="M 9.9334594,471.47393 V 59.38245 H 265.93336 v 74.92573 H 67.480507 v 91.06357 H 502.06654 v 74.92572 H 67.480507 v 96.25074 H 265.93336 l 49.23121,74.9258 z"
       id="text1"
       style="font-size:192px;font-family:'Zen Dots';-inkscape-font-specification:'Zen Dots, Normal';white-space:pre;inline-size:177.914;stroke-width:2.37135"
       aria-label="E" />
    <path
       style="font-size:201.717px;font-family:'Zen Dots';-inkscape-font-specification:'Zen Dots, Normal';stroke-width:2.65222"
       d="m 329.89454,225.37176 q -17.49877,0 -25.74532,-13.8593 -8.24655,-14.1816 -8.24655,-37.06558 V 96.44805 H 265.93351 V 59.382466 h 29.96916 V 8.4575868 H 325.0673 V 59.382466 h 43.04295 V 96.44805 H 325.0673 v 72.19728 q 0,19.66085 12.06812,19.66085 h 36.60662 v 37.06558 z m 58.93281,0 V 59.382466 h 79.24732 q 17.49877,0 25.74532,14.181603 8.24655,13.859302 8.24655,36.743271 v 34.48709 h -29.56689 v -28.68552 q 0,-19.338559 -12.06812,-19.338559 H 418.39424 V 225.37176 Z"
       id="text2"
       aria-label="tr" />
    <path
       d="m 446.9062,328.97701 q -31.03868,0 -48.41109,-15.28771 -17.3724,-15.51935 -17.3724,-45.39988 0,-30.11216 17.3724,-45.39987 17.37241,-15.51934 48.41109,-15.51934 h 42.85192 q 31.03869,0 48.41109,15.51934 17.3724,15.28771 17.3724,45.39987 0,29.88053 -17.3724,45.39988 -17.3724,15.28771 -48.41109,15.28771 z m 0,-26.63768 h 42.85192 q 15.05608,0 22.93157,-8.33875 8.10712,-8.33876 8.10712,-25.71116 0,-17.60403 -8.10712,-25.94278 -7.87549,-8.33875 -22.93157,-8.33875 H 446.9062 q -15.05608,0 -23.1632,8.33875 -7.87548,8.33875 -7.87548,25.94278 0,17.3724 7.87548,25.71116 8.10712,8.33875 23.1632,8.33875 z m 129.48229,25.47952 V 208.52837 h 104.00277 q 20.38361,0 29.64889,10.1918 9.49692,9.96018 9.49692,26.40605 v 82.69263 h -33.58664 v -78.75488 q 0,-13.89792 -13.89792,-13.89792 h -62.07738 v 92.6528 z"
       id="text5"
       style="font-size:231.632px;font-family:'Zen Dots';-inkscape-font-specification:'Zen Dots, Normal';stroke-width:2.41284"
       transform="scale(0.69776235,1.4331527)"
       aria-label="on" />
  </g>
</svg>
